<mxfile host="app.diagrams.net" modified="2023-08-31T03:22:10.297Z" agent="Mozilla/5.0 (Macintosh; Intel Mac OS X 10_15_7) AppleWebKit/537.36 (KHTML, like Gecko) Chrome/115.0.0.0 Safari/537.36" etag="tLeI1kOxsJ7LxjzJLGr7" version="21.6.9" type="github">
  <diagram id="LPxzDfarXafkQE6jDnBZ" name="Page-1">
    <mxGraphModel dx="957" dy="70" grid="0" gridSize="10" guides="1" tooltips="1" connect="1" arrows="1" fold="1" page="0" pageScale="1" pageWidth="827" pageHeight="1169" math="0" shadow="0">
      <root>
        <mxCell id="0" />
        <mxCell id="1" parent="0" />
        <mxCell id="35" value="" style="fillColor=#dddddd;rounded=0;strokeColor=none;" parent="1" vertex="1">
          <mxGeometry x="30" y="820" width="900" height="30" as="geometry" />
        </mxCell>
        <mxCell id="36" value="2023 Q1" style="shape=mxgraph.infographic.ribbonSimple;notch1=0;notch2=10;notch=0;html=1;fillColor=#10739E;strokeColor=none;shadow=0;fontSize=17;fontColor=#FFFFFF;align=left;spacingLeft=10;fontStyle=1;" parent="1" vertex="1">
          <mxGeometry x="102" y="810" width="120" height="50" as="geometry" />
        </mxCell>
        <mxCell id="37" value="2023 Q2" style="shape=mxgraph.infographic.ribbonSimple;notch1=0;notch2=10;notch=0;html=1;fillColor=#F2931E;strokeColor=none;shadow=0;fontSize=17;fontColor=#FFFFFF;align=left;spacingLeft=10;fontStyle=1;" parent="1" vertex="1">
          <mxGeometry x="340" y="810" width="120" height="50" as="geometry" />
        </mxCell>
        <mxCell id="38" value="2023 Q3" style="shape=mxgraph.infographic.ribbonSimple;notch1=0;notch2=10;notch=0;html=1;fillColor=#AE4132;strokeColor=none;shadow=0;fontSize=17;fontColor=#FFFFFF;align=left;spacingLeft=10;fontStyle=1;" parent="1" vertex="1">
          <mxGeometry x="550" y="810" width="120" height="50" as="geometry" />
        </mxCell>
        <mxCell id="39" value="2023 Q4" style="shape=mxgraph.infographic.ribbonSimple;notch1=0;notch2=10;notch=0;html=1;fillColor=#23445D;strokeColor=none;shadow=0;fontSize=17;fontColor=#FFFFFF;align=left;spacingLeft=10;fontStyle=1;" parent="1" vertex="1">
          <mxGeometry x="760" y="810" width="120" height="50" as="geometry" />
        </mxCell>
        <mxCell id="44" value="&lt;font style=&quot;font-size: 10px&quot;&gt;&lt;font style=&quot;font-size: 12px&quot; color=&quot;#23445D&quot;&gt;&lt;b&gt;v6.1.0&lt;/b&gt;&lt;/font&gt;&lt;br&gt;&lt;br&gt;&lt;br&gt;&lt;/font&gt;" style="rounded=1;strokeColor=none;fillColor=#DDDDDD;align=center;arcSize=12;verticalAlign=top;whiteSpace=wrap;html=1;fontSize=12;" parent="1" vertex="1">
          <mxGeometry x="585" y="872" width="323" height="126" as="geometry" />
        </mxCell>
        <mxCell id="SX_tQqFvmrBmvV6av49C-62" value="1、大数据中 Alluxio、JuiceFS 的集成，提高大数据存储层处理性能&lt;br&gt;2、Volcano 组件的集成&lt;br&gt;3、对 KubeData 产品规划的中间件进行支撑&lt;br&gt;4、云上大数据能力，通过多云的技术能力，提供性价比更高的大数据服务 - 学习 Snowflake" style="text;html=1;whiteSpace=wrap;" parent="1" vertex="1">
          <mxGeometry x="595" y="894" width="302" height="95" as="geometry" />
        </mxCell>
        <mxCell id="54" value="&lt;b style=&quot;color: rgb(242 , 147 , 30)&quot;&gt;&amp;nbsp; &amp;nbsp; &amp;nbsp; &amp;nbsp; &amp;nbsp; &amp;nbsp; &amp;nbsp; &amp;nbsp; &amp;nbsp; &amp;nbsp; &amp;nbsp; &amp;nbsp; &amp;nbsp; &amp;nbsp; &amp;nbsp; &amp;nbsp; &amp;nbsp; &amp;nbsp; &amp;nbsp; &amp;nbsp; &amp;nbsp; &amp;nbsp; &amp;nbsp; &amp;nbsp; &amp;nbsp; &amp;nbsp; &amp;nbsp; &amp;nbsp; &amp;nbsp;v6.0&lt;/b&gt;&lt;font color=&quot;#10739e&quot;&gt;&lt;span&gt;&lt;br&gt;&lt;br&gt;&lt;/span&gt;&lt;br&gt;&lt;/font&gt;" style="rounded=1;strokeColor=none;fillColor=#DDDDDD;align=left;arcSize=12;verticalAlign=top;whiteSpace=wrap;html=1;fontSize=12;fontStyle=1" parent="1" vertex="1">
          <mxGeometry x="241" y="665" width="355" height="123" as="geometry" />
        </mxCell>
        <mxCell id="56" value="1、升级开源中间件版本&lt;br&gt;2、优化中间件可靠性及性能&lt;br&gt;&lt;div&gt;3、完善更多中间件灾备、多活产品能力&lt;/div&gt;&lt;div&gt;&lt;/div&gt;4、完善中间件数据备份与恢复&lt;br&gt;5、基于项目积累，构建独立的消息服务自助平台&lt;br&gt;6、抽离各个中间件，将项目经验融合，按独立组件迭代&lt;br&gt;7、融合进入Kubebb" style="text;html=1;" parent="1" vertex="1">
          <mxGeometry x="266" y="683" width="344" height="97" as="geometry" />
        </mxCell>
        <mxCell id="57" value="&lt;b style=&quot;color: rgb(242 , 147 , 30)&quot;&gt;&amp;nbsp; &amp;nbsp; &amp;nbsp; &amp;nbsp; &amp;nbsp; &amp;nbsp; &amp;nbsp; v5.6.0&lt;/b&gt;&lt;font color=&quot;#10739e&quot;&gt;&lt;span&gt;&lt;br&gt;&lt;/span&gt;&lt;br&gt;&lt;/font&gt;" style="rounded=1;strokeColor=none;fillColor=#DDDDDD;align=left;arcSize=12;verticalAlign=top;whiteSpace=wrap;html=1;fontSize=12;fontStyle=1" parent="1" vertex="1">
          <mxGeometry x="90" y="703" width="134" height="85" as="geometry" />
        </mxCell>
        <mxCell id="58" value="1、功能开发收尾&lt;br&gt;2、系统测试&lt;br&gt;3、版本发布物料" style="text;html=1;" parent="1" vertex="1">
          <mxGeometry x="103" y="724" width="108" height="56" as="geometry" />
        </mxCell>
        <mxCell id="59" value="&lt;font style=&quot;font-size: 10px&quot;&gt;&lt;font style=&quot;font-size: 12px&quot; color=&quot;#12AAB5&quot;&gt;&lt;b&gt;v5.7.0&lt;/b&gt;&lt;/font&gt;&lt;br&gt;v5.6.0 版本之上的客户需求支持&lt;br&gt;&lt;/font&gt;" style="rounded=1;strokeColor=none;fillColor=#DDDDDD;align=center;arcSize=7;verticalAlign=top;whiteSpace=wrap;html=1;fontSize=12;" parent="1" vertex="1">
          <mxGeometry x="659" y="738" width="161" height="50" as="geometry" />
        </mxCell>
        <mxCell id="60" value="&lt;font style=&quot;font-size: 10px&quot;&gt;&lt;font style=&quot;font-size: 12px&quot; color=&quot;#F2931E&quot;&gt;&lt;b&gt;v5.6.1&lt;br&gt;&lt;/b&gt;&lt;/font&gt;发布 fixpack 版本，提供 v5.6.0 的升级支持&lt;br&gt;&lt;/font&gt;" style="rounded=1;strokeColor=none;fillColor=#DDDDDD;align=center;arcSize=12;verticalAlign=top;whiteSpace=wrap;html=1;fontSize=12;" parent="1" vertex="1">
          <mxGeometry x="289.5" y="878" width="221" height="50" as="geometry" />
        </mxCell>
      </root>
    </mxGraphModel>
  </diagram>
</mxfile>
